<svg width="144" height="40" viewBox="0 0 144 40" fill="none" xmlns="http://www.w3.org/2000/svg">
    <g clip-path="url(#l0vc6g5gka)">
        <path d="M83.656 7.185a10.031 10.031 0 0 0-1.687-2.074 11.335 11.335 0 0 0-2.204-1.605c-.8-.444-1.675-.79-2.611-1.037a12.075 12.075 0 0 0-5.862 0c-.936.247-1.81.593-2.61 1.037-.801.445-1.54.988-2.193 1.605a9.648 9.648 0 0 0-1.687 2.074c-.468.753-.825 1.58-1.084 2.445a9.632 9.632 0 0 0-.382 2.74c0 .951.123 1.902.382 2.79.259.89.616 1.729 1.084 2.507a10.394 10.394 0 0 0 1.687 2.123 10.68 10.68 0 0 0 2.204 1.642c.8.457 1.675.815 2.611 1.062.936.247 1.921.37 2.931.37s2.008-.123 2.931-.37a11.021 11.021 0 0 0 4.815-2.704 10.65 10.65 0 0 0 1.688-2.123c.468-.778.825-1.618 1.083-2.507a9.978 9.978 0 0 0 .382-2.79c0-.963-.135-1.864-.382-2.74a10.127 10.127 0 0 0-1.084-2.445h-.012zm-3.251 8.852c-.296 1.099-.727 2.074-1.28 2.877a6.094 6.094 0 0 1-2.07 1.864c-.813.444-1.76.667-2.82.667-1.059 0-2.056-.223-2.87-.667a5.982 5.982 0 0 1-2.068-1.864c-.554-.803-.985-1.766-1.269-2.877-.283-1.111-.43-2.346-.43-3.667 0-1.32.147-2.518.43-3.592.284-1.074.715-2.013 1.269-2.79.554-.766 1.244-1.383 2.069-1.803.825-.432 1.785-.642 2.882-.642 1.096 0 2.007.222 2.832.642a6.037 6.037 0 0 1 2.069 1.803c.566.777.997 1.716 1.28 2.79.296 1.086.444 2.296.444 3.592 0 1.297-.148 2.556-.443 3.667h-.025zM56.637 11.42h-9.273V2.58h-3.707v19.852h3.707v-9.308h9.273v9.308h3.707V2.58h-3.707v8.84zM102.818 13.605a5.217 5.217 0 0 0-1.502-1.062 6.746 6.746 0 0 0-1.355-.469c.468-.247.887-.494 1.232-.728a5.25 5.25 0 0 0 1.133-1.062c.283-.383.492-.803.603-1.247.111-.432.173-.926.173-1.481 0-.741-.185-1.433-.542-2.05a4.816 4.816 0 0 0-1.503-1.58c-.628-.432-1.404-.766-2.29-1.012a11.194 11.194 0 0 0-2.894-.358h-8.017v19.851h9.26c1.047 0 2.008-.135 2.858-.42.849-.271 1.601-.666 2.204-1.147a5.277 5.277 0 0 0 1.416-1.741 4.797 4.797 0 0 0 .505-2.16c0-.68-.111-1.297-.332-1.865a4.39 4.39 0 0 0-.961-1.481l.012.012zM91.563 4.32h2.45c.948 0 1.774.086 2.45.26.666.172 1.22.407 1.651.728.419.308.727.679.924 1.098.197.432.295.926.295 1.457 0 .494-.086.963-.258 1.383a3.15 3.15 0 0 1-.74 1.086 3.36 3.36 0 0 1-1.206.729c-.48.173-1.035.259-1.663.259H91.55v-7h.013zm8.275 14.16c-.197.42-.517.79-.936 1.087-.43.308-.985.555-1.65.728-.677.173-1.478.26-2.401.26h-3.288V12.95h3.19c1.009 0 1.871.11 2.56.32.678.21 1.232.507 1.65.865.42.358.715.79.9 1.284.185.506.283 1.05.283 1.63 0 .505-.098.987-.308 1.42v.012zM114.136 2.58l-9.323 19.852h2.119l3.054-6.481h8.005l2.955 6.481h3.806L115.638 2.58h-1.502zm-3.362 11.68 3.251-6.914 3.165 6.913h-6.416zM141.315 2.58v13.95L128.828 2.58h-2.143v19.852h1.909V7.358l13.128 15.074h1.478V2.58h-1.885z" fill="#575553"/>
        <path d="M32.13 0H1.552C.695 0 0 .696 0 1.556v8.765c0 .86.695 1.556 1.552 1.556H32.13c.857 0 1.552-.697 1.552-1.556V1.556C33.682.696 32.987 0 32.13 0z" fill="#EE7500"/>
        <path d="M32.13 13.136H1.552C.695 13.136 0 13.832 0 14.69v8.766c0 .859.695 1.555 1.552 1.555H32.13c.857 0 1.552-.696 1.552-1.555V14.69c0-.859-.695-1.555-1.552-1.555z" fill="#89898A"/>
        <path d="M125.589 31.543c0 1.519.517 3.284 2.229 4.494l-.85 1.062c-.997-.729-1.761-1.753-2.143-2.593-.406.95-1.317 2.111-2.29 2.716l-.825-1.086c1.465-.963 2.315-2.58 2.315-4.593v-1.271h-1.81v-.84h5.147v.84h-1.773v1.271zM132.498 28.84v9.876c0 .494-.222 1.074-.936 1.074h-.616v-6.654h-.961v5.432c0 .481-.246 1.05-.972 1.05h-.616V28.962h1.576v3.32h.961v-3.431h1.539l.025-.012zM136.943 38.963h5.801v.827h-6.392c-.763 0-1.268-.481-1.268-1.21v-2.383h1.625v2.556c0 .111.099.21.234.21zM142.522 31.518V28.84h-1.564v7.481h.653c.677 0 .911-.568.911-1.05v-2.9h1.49v-.853h-1.49zM135.687 33.593c0 .086.087.16.185.16h4.224v1.136h-4.951c-.689 0-1.071-.408-1.071-1.012v-4.655h5.53v.84h-3.917V33.593zM83.398 38.593V36.53c1.76-.26 3.078-1.358 3.066-2.938 0-.803-.382-1.642-1.33-2.16h1.983v-.853h-3.683v-1.926h-1.736v1.926h-3.682v.852h1.995c-.862.47-1.33 1.222-1.342 2.16-.025 1.556 1.305 2.667 3.066 2.939v2.062h-4.544v.84h10.763v-.84H83.398zm-2.845-5.149c0-1.049.751-2 2.056-2a2.03 2.03 0 0 1 2.057 2c0 1.457-1.084 2.198-2.057 2.198-1.194 0-2.069-.84-2.056-2.198zM91.969 38.95h5.837v.84h-6.44c-.764 0-1.281-.494-1.281-1.222V36.16h1.638v2.58c0 .11.098.21.234.21h.012zM92.856 29.198V31h-2.291v-1.802h-1.613v4.567c0 .63.48 1.173 1.182 1.173h4.31v-5.74h-1.588zm0 4.617h-1.959a.329.329 0 0 1-.332-.321V31.84h2.29v1.975zM99.186 32.642H97.67v2.74c0 .495-.234 1.062-.924 1.062h-.665V28.84h1.601v2.963h1.515v.84h-.012zM102.486 38.95v-2.308h-1.65v2.136c0 .74.517 1.234 1.293 1.234h6.49v-.84h-5.887c-.135 0-.234-.098-.234-.209l-.012-.012z" fill="#575553"/>
        <path d="M99.469 34.568v.84h4.433v2.382h.677c.752 0 .949-.593.949-1.123V35.42h4.273v-.84H99.456l.013-.012zM102.043 33.753h6.403v-3.296c0-.605-.541-1.124-1.194-1.124h-6.429v3.198c0 .666.444 1.222 1.22 1.222zm.381-3.543h4.311c.123 0 .184.086.184.247v2.407h-4.211c-.16 0-.284-.099-.284-.296V30.21zM120.318 32.444v-3.506h-1.601v8.432h-3.46V35.52c1.354-.297 2.352-1.31 2.352-2.531 0-.754-.382-1.433-.998-1.914h1.49v-.84h-2.844V28.79h-1.614v1.445h-2.869v.84h1.539c-.615.48-.997 1.16-.997 1.913 0 1.222.997 2.234 2.34 2.53v1.852h-2.87v.84h7.943v1.753h.678c.702 0 .936-.58.936-1.074v-5.617h1.527v-.84h-1.527l-.025.012zm-7.34.494c0-1.024.69-1.815 1.441-1.815 1.01 0 1.515.914 1.515 1.828 0 .913-.48 1.765-1.466 1.765-.775 0-1.49-.691-1.49-1.79v.012z" fill="#575553"/>
    </g>
    <defs>
        <clipPath id="l0vc6g5gka">
            <path fill="#fff" d="M0 0h144v40H0z"/>
        </clipPath>
    </defs>
</svg>
